<mxfile host="app.diagrams.net" modified="2021-02-09T07:38:11.990Z" agent="5.0 (Windows NT 6.1; WOW64) AppleWebKit/537.36 (KHTML, like Gecko) Chrome/72.0.3626.119 Safari/537.36" etag="ss0_dCRXxldUdY63Pa2i" version="14.2.9" type="github">
  <diagram id="kxSdKNYJrgQTS2m-J1gP" name="Page-1">
    <mxGraphModel dx="793" dy="473" grid="1" gridSize="10" guides="1" tooltips="1" connect="1" arrows="1" fold="1" page="1" pageScale="1" pageWidth="850" pageHeight="1100" math="0" shadow="0">
      <root>
        <mxCell id="0" />
        <mxCell id="1" parent="0" />
        <mxCell id="Cx2RV0T2Z3ZGY7Y57L8y-3" value="" style="rounded=1;whiteSpace=wrap;html=1;" vertex="1" parent="1">
          <mxGeometry x="160" y="80" width="500" height="260" as="geometry" />
        </mxCell>
        <mxCell id="Cx2RV0T2Z3ZGY7Y57L8y-4" value="&lt;font style=&quot;font-size: 18px&quot;&gt;lecteur&lt;/font&gt;" style="text;html=1;strokeColor=none;fillColor=none;align=center;verticalAlign=middle;whiteSpace=wrap;rounded=0;" vertex="1" parent="1">
          <mxGeometry x="360" y="90" width="110" height="40" as="geometry" />
        </mxCell>
        <mxCell id="Cx2RV0T2Z3ZGY7Y57L8y-5" value="nom complet" style="ellipse;whiteSpace=wrap;html=1;" vertex="1" parent="1">
          <mxGeometry x="200" y="160" width="100" height="60" as="geometry" />
        </mxCell>
        <mxCell id="Cx2RV0T2Z3ZGY7Y57L8y-7" value="adresse" style="ellipse;whiteSpace=wrap;html=1;" vertex="1" parent="1">
          <mxGeometry x="350" y="160" width="100" height="60" as="geometry" />
        </mxCell>
        <mxCell id="Cx2RV0T2Z3ZGY7Y57L8y-8" value="numÃ©ro" style="ellipse;whiteSpace=wrap;html=1;" vertex="1" parent="1">
          <mxGeometry x="500" y="160" width="100" height="60" as="geometry" />
        </mxCell>
      </root>
    </mxGraphModel>
  </diagram>
</mxfile>
